<svg viewBox="0 0 240.94 139.42" xmlns="http://www.w3.org/2000/svg"><path d="m0 0h240.94v139.42h-240.94z" fill="none"/><path d="m121.57 83.33h1.88l7.02-8.58h4.96l-8.53 10.27 9.4 10.77h-5.11l-7.74-9h-1.88v9h-4.04v-21.03h4.04v8.58z" fill="#e40521"/><path d="m157.43 74.75v14.95c0 5.87-3.67 6.26-8.78 6.26s-8.72-.36-8.72-6.26v-14.95h4.05v14.95c0 2.16.78 2.81 4.68 2.81s4.74-.53 4.74-2.81v-14.95h4.04z" fill="#e40521"/><path d="m178.92 74.75h4.04v21.03h-6.7l-8.95-17.58h-.14l.34 17.58h-4.04v-21.03h6.67l9.01 17.59h.11z" fill="#e40521"/><path d="m206.14 82.27v5.67c0 6.73-2.61 8.02-8.98 8.02s-8.89-1.12-8.89-8.02v-5.67c0-6.53 2.22-7.69 8.89-7.69 6.06 0 8.98.93 8.98 7.69zm-13.83 0v5.67c0 4.18.81 4.58 4.85 4.58 3.68 0 4.93-.51 4.93-4.58v-5.67c.09-3.95-1.34-4.23-4.93-4.23-4.34 0-4.77.9-4.85 4.23z" fill="#e40521"/><path d="m214.55 89.09v.98c0 2.41 1.04 2.58 4.77 2.58s4.18-.67 4.18-3.12c0-3-1.6-2.61-4.74-2.77-4.54-.28-8.13-.11-8.13-6.23 0-5.78 3.65-5.95 8.69-5.95 4.3 0 7.8.15 7.8 5.67v.67h-4.04v-.67c0-2.27-.92-2.35-3.76-2.35-4.01 0-4.65.39-4.65 2.63 0 2.58.53 2.66 4.63 2.92 6.48.39 8.24.73 8.24 6.08 0 5.92-2.8 6.43-8.22 6.43-4.65 0-8.8.14-8.8-5.89v-.98z" fill="#e40521"/><g fill="#fff"><path d="m17.61 113.75v.98c0 6.03 4.15 5.89 8.81 5.89 5.41 0 8.22-.51 8.22-6.43 0-5.35-1.77-5.69-8.25-6.08-4.1-.26-4.63-.34-4.63-2.92 0-2.25.64-2.63 4.66-2.63 2.83 0 3.76.08 3.76 2.36v.67h4.04v-.67c0-5.53-3.51-5.67-7.8-5.67-5.05 0-8.7.17-8.7 5.95 0 6.12 3.59 5.95 8.14 6.23 3.14.16 4.74-.23 4.74 2.77 0 2.45-.5 3.12-4.18 3.12s-4.77-.16-4.77-2.58v-.98h-4.04z"/><path d="m39.78 99.42h4.04v21.03h-4.04z"/><path d="m62.19 115.04h-.11l-5.72-15.62h-6.48v21.04h4.03l-.33-17.64h.09l6.67 17.64h3.62l6.62-17.73h.14l-.34 17.73h4.04v-21.04h-6.62z"/><path d="m97.28 99.42h-4.04v14.95c0 2.28-1.01 2.81-4.74 2.81s-4.68-.64-4.68-2.81v-14.95h-4.04v14.95c0 5.89 3.79 6.26 8.72 6.26s8.78-.39 8.78-6.26z"/><path d="m102.63 99.42v21.04h13.86v-3.45h-9.82v-17.59z"/><path d="m132.52 99.42h-5.94l-6.99 21.03h4.18l1.32-3.98h9.09l1.37 3.98h4.09l-7.13-21.03zm-6.51 14 3.59-10.91h.06l3.61 10.91z"/><path d="m148.3 116.93 11.65-14.06v-3.45h-16.14v3.45h11.06v.12l-11.56 14.05v3.42h16.77v-3.45h-11.78z"/><path d="m165 99.42h4.04v21.03h-4.04z"/><path d="m183.24 120.63c6.36 0 8.97-1.29 8.97-8.02v-5.67c0-6.75-2.92-7.69-8.97-7.69-6.68 0-8.9 1.15-8.9 7.69v5.67c0 6.9 2.39 8.02 8.9 8.02zm-4.86-13.69c.09-3.33.51-4.23 4.86-4.23 3.59 0 5.02.28 4.94 4.23v5.67c0 4.07-1.27 4.57-4.94 4.57-4.04 0-4.86-.39-4.86-4.57z"/><path d="m201.23 102.87h.13l8.96 17.59h6.7v-21.04h-4.04l.34 17.59h-.12l-9-17.59h-6.67v21.04h4.03z"/><path d="m223.08 99.42h4.04v21.03h-4.04z"/><path d="m235.65 97.49c-2.42 0-4.47 1.86-4.47 4.37s2.05 4.41 4.47 4.41 4.44-1.86 4.44-4.41-2.05-4.37-4.44-4.37zm0 8.07c-2.04 0-3.62-1.55-3.62-3.7s1.58-3.67 3.62-3.67 3.59 1.58 3.59 3.67-1.58 3.7-3.59 3.7z"/><path d="m237.67 100.79c0-1-.59-1.45-1.79-1.45h-1.94v5.07h.77v-2.2h.88l1.35 2.2h.85l-1.44-2.22c.75-.1 1.32-.49 1.32-1.4zm-2.96.78v-1.59h1.06c.89 0 1.12.28 1.12.76 0 .56-.32.83-1.26.83h-.93z"/><path d="m20.11 124.76h-2.39v7.92h.72v-3.51h1.67c1.88 0 2.68-.88 2.68-2.2s-.79-2.21-2.68-2.21zm0 3.82h-1.67v-3.23h1.67c1.37 0 1.95.57 1.95 1.61s-.58 1.61-1.95 1.61z"/><path d="m24.86 128.06h-.02v-1.09h-.66v5.71h.66v-3.23c0-1.1.94-1.96 1.67-1.96h.29v-.63h-.29c-.72 0-1.34.5-1.65 1.2z"/><path d="m29.72 126.86c-1.78 0-2.35 1.41-2.35 2.96s.57 2.96 2.35 2.96 2.35-1.42 2.35-2.96-.57-2.96-2.35-2.96zm0 5.4c-1.18 0-1.69-.89-1.69-2.44s.51-2.44 1.69-2.44 1.69.89 1.69 2.44-.52 2.44-1.69 2.44z"/><path d="m33.51 126.16v.81h-.94v.53h.94v5.18h.66v-5.18h1.16v-.53h-1.16v-.89c0-.66.27-.91.78-.91.24 0 .44.04.65.11v-.55c-.24-.04-.47-.09-.72-.09-.97 0-1.37.53-1.37 1.51z"/><path d="m38.39 132.26c-1.3 0-1.83-1.12-1.83-2.42h3.97c0-1.76-.74-2.98-2.28-2.98-1.45 0-2.35 1.2-2.35 2.96 0 2.01.94 2.96 2.43 2.96 1.08 0 1.65-.38 2.26-1.4l-.54-.29c-.57.9-.93 1.16-1.67 1.16zm-.17-4.87c1 .01 1.51.76 1.65 1.93h-3.31c.01-.75.5-1.94 1.67-1.93z"/><path d="m42.08 128.39c0-.69.49-1 1.13-1 .68 0 1.09.33 1.48.86l.5-.35c-.41-.66-1.01-1.03-1.97-1.03s-1.81.48-1.81 1.56c0 2.03 3.36 1.09 3.36 2.75 0 .61-.55 1.09-1.27 1.09s-1.23-.2-1.77-.97l-.49.34c.54.8 1.33 1.15 2.21 1.15 1.03 0 1.97-.59 1.97-1.61 0-2.21-3.35-1.39-3.35-2.78z"/><path d="m46.95 128.39c0-.69.49-1 1.13-1 .68 0 1.1.33 1.48.86l.5-.35c-.41-.66-1.01-1.03-1.96-1.03s-1.81.48-1.81 1.56c0 2.03 3.36 1.09 3.36 2.75 0 .61-.55 1.09-1.27 1.09s-1.23-.2-1.77-.97l-.48.34c.54.8 1.33 1.15 2.21 1.15 1.03 0 1.97-.59 1.97-1.61 0-2.21-3.35-1.39-3.35-2.78z"/><path d="m51.61 124.76h.66v.96h-.66z"/><path d="m51.61 126.97h.66v5.71h-.66z"/><path d="m55.89 126.86c-1.77 0-2.34 1.41-2.34 2.96s.57 2.96 2.34 2.96 2.35-1.42 2.35-2.96-.58-2.96-2.35-2.96zm0 5.4c-1.17 0-1.69-.89-1.69-2.44s.51-2.44 1.69-2.44 1.69.89 1.69 2.44-.52 2.44-1.69 2.44z"/><path d="m62.15 126.86c-.83 0-1.34.37-1.95 1.01v-.9h-.66v5.71h.66v-4.2c.72-.66 1.12-1.09 1.82-1.09.88 0 1.16.51 1.16 1.46v3.83h.66v-3.9c0-1.23-.5-1.91-1.69-1.91z"/><path d="m69.3 128.65c0-1.26-.62-1.79-1.91-1.79-.92 0-1.63.37-2.12 1.3l.44.26c.42-.66.98-1.03 1.66-1.03.98 0 1.31.38 1.31 1.14v.4c-2.39.52-3.66.8-3.66 2.36 0 .94.68 1.49 1.57 1.49s1.39-.27 2.07-.8l.09.69h.64c-.07-.38-.09-.76-.09-1.04zm-.66 2.66c-.57.58-1.33.95-1.94.95s-1.02-.35-1.02-.98c0-.72.35-1.26 2.96-1.83z"/><path d="m71.11 124.76h.66v7.92h-.66z"/><path d="m78.6 128.17c-1.46-.54-1.61-.93-1.61-1.47 0-.93.64-1.46 1.56-1.46 1.01 0 1.62.62 1.9 1.49l.63-.19c-.36-1.22-1.29-1.9-2.53-1.9-1.47 0-2.28.88-2.28 2.05 0 2.62 4.29 1.79 4.29 3.92 0 .96-.59 1.58-1.58 1.58-1.25 0-1.95-.52-2.26-1.73l-.67.2c.44 1.45 1.3 2.12 2.82 2.12 1.29 0 2.41-.75 2.41-2.1 0-1.14-.45-1.69-2.68-2.52z"/><path d="m84.54 126.86c-1.78 0-2.35 1.41-2.35 2.96s.57 2.96 2.35 2.96 2.35-1.42 2.35-2.96-.57-2.96-2.35-2.96zm0 5.4c-1.18 0-1.69-.89-1.69-2.44s.51-2.44 1.69-2.44 1.69.89 1.69 2.44-.51 2.44-1.69 2.44z"/><path d="m88.17 124.76h.65v7.92h-.65z"/><path d="m94.25 131.17c-.73.66-1.12 1.09-1.82 1.09-.88 0-1.16-.52-1.16-1.46v-3.83h-.66v3.89c0 1.24.5 1.93 1.69 1.93.83 0 1.34-.37 1.95-1.01v.9h.66v-5.71h-.66z"/><path d="m97.43 125.11h-.66v1.86h-.85v.53h.85v4.29c0 .69.31 1 1.24 1 .22 0 .45-.07.67-.1v-.55c-.21.07-.45.13-.67.13-.4 0-.58-.2-.58-.59v-4.18h1.25v-.53h-1.25z"/><path d="m99.74 126.97h.66v5.71h-.66z"/><path d="m99.74 124.76h.66v.96h-.66z"/><path d="m104.03 126.86c-1.78 0-2.35 1.41-2.35 2.96s.57 2.96 2.35 2.96 2.34-1.42 2.34-2.96-.57-2.96-2.34-2.96zm0 5.4c-1.17 0-1.69-.89-1.69-2.44s.52-2.44 1.69-2.44 1.68.89 1.68 2.44-.51 2.44-1.68 2.44z"/><path d="m110.28 126.86c-.84 0-1.34.37-1.95 1.01v-.9h-.66v5.71h.66v-4.2c.72-.66 1.12-1.09 1.82-1.09.88 0 1.16.51 1.16 1.46v3.83h.66v-3.9c0-1.23-.5-1.91-1.69-1.91z"/><path d="m113.96 128.39c0-.69.5-1 1.13-1 .68 0 1.1.33 1.48.86l.51-.35c-.41-.66-1.01-1.03-1.97-1.03s-1.81.48-1.81 1.56c0 2.03 3.35 1.09 3.35 2.75 0 .61-.55 1.09-1.27 1.09s-1.23-.2-1.77-.97l-.48.34c.53.8 1.33 1.15 2.2 1.15 1.03 0 1.98-.59 1.98-1.61 0-2.21-3.36-1.39-3.36-2.78z"/><path d="m121.83 126.16v.81h-.94v.53h.94v5.18h.65v-5.18h1.16v-.53h-1.16v-.89c0-.66.27-.91.79-.91.24 0 .44.04.64.11v-.55c-.24-.04-.47-.09-.71-.09-.97 0-1.37.53-1.37 1.51z"/><path d="m126.57 126.86c-1.78 0-2.35 1.41-2.35 2.96s.57 2.96 2.35 2.96 2.35-1.42 2.35-2.96-.57-2.96-2.35-2.96zm0 5.4c-1.17 0-1.69-.89-1.69-2.44s.52-2.44 1.69-2.44 1.69.89 1.69 2.44-.52 2.44-1.69 2.44z"/><path d="m130.84 128.06h-.02v-1.09h-.66v5.71h.66v-3.23c0-1.1.94-1.96 1.67-1.96h.3v-.63h-.3c-.73 0-1.34.5-1.65 1.2z"/><path d="m138.91 128.17c-1.46-.54-1.61-.93-1.61-1.47 0-.93.63-1.46 1.56-1.46 1.01 0 1.62.62 1.9 1.49l.63-.19c-.36-1.22-1.28-1.9-2.53-1.9-1.47 0-2.28.88-2.28 2.05 0 2.62 4.28 1.79 4.28 3.92 0 .96-.59 1.58-1.58 1.58-1.25 0-1.95-.52-2.26-1.73l-.67.2c.44 1.45 1.3 2.12 2.81 2.12 1.28 0 2.41-.75 2.41-2.1 0-1.14-.45-1.69-2.67-2.52z"/><path d="m142.99 124.76h.66v.96h-.66z"/><path d="m142.99 126.97h.66v5.71h-.66z"/><path d="m151.26 126.86c-.82 0-1.37.44-1.89 1.04-.16-.64-.75-1.04-1.38-1.04-.89 0-1.32.36-1.9.98v-.87h-.66v5.71h.66v-4.2c.35-.55 1.19-1.09 1.69-1.09.64 0 .99.32.99.95v4.34h.66v-4.2c.35-.55 1.18-1.09 1.69-1.09.64 0 .99.32.99.95v4.34h.66v-4.27c0-1-.5-1.54-1.5-1.54z"/><path d="m158.21 131.17c-.72.66-1.12 1.09-1.82 1.09-.88 0-1.16-.52-1.16-1.46v-3.83h-.66v3.89c0 1.24.51 1.93 1.69 1.93.84 0 1.34-.37 1.95-1.01v.9h.66v-5.71h-.66z"/><path d="m160.66 124.76h.66v7.92h-.66z"/><path d="m166.76 128.65c0-1.26-.61-1.79-1.91-1.79-.92 0-1.62.37-2.12 1.3l.44.26c.42-.66.98-1.03 1.66-1.03.98 0 1.31.38 1.31 1.14v.4c-2.38.52-3.66.8-3.66 2.36 0 .94.68 1.49 1.57 1.49s1.39-.27 2.07-.8l.09.69h.64c-.07-.38-.09-.76-.09-1.04zm-.66 2.66c-.57.58-1.33.95-1.94.95s-1.02-.35-1.02-.98c0-.72.35-1.26 2.96-1.83z"/><path d="m169.31 125.11h-.66v1.86h-.86v.53h.86v4.29c0 .69.31 1 1.24 1 .22 0 .45-.07.66-.1v-.55c-.21.07-.45.13-.66.13-.41 0-.58-.2-.58-.59v-4.18h1.25v-.53h-1.25z"/><path d="m171.62 124.76h.66v.96h-.66z"/><path d="m171.62 126.97h.66v5.71h-.66z"/><path d="m175.91 126.86c-1.77 0-2.35 1.41-2.35 2.96s.57 2.96 2.35 2.96 2.35-1.42 2.35-2.96-.57-2.96-2.35-2.96zm0 5.4c-1.17 0-1.69-.89-1.69-2.44s.52-2.44 1.69-2.44 1.69.89 1.69 2.44-.52 2.44-1.69 2.44z"/><path d="m182.16 126.86c-.83 0-1.34.37-1.96 1.01v-.9h-.66v5.71h.66v-4.2c.73-.66 1.13-1.09 1.82-1.09.88 0 1.17.51 1.17 1.46v3.83h.66v-3.9c0-1.23-.51-1.91-1.69-1.91z"/><path d="m190.7 128.17c-1.46-.54-1.62-.93-1.62-1.47 0-.93.64-1.46 1.56-1.46 1.01 0 1.63.62 1.91 1.49l.63-.19c-.36-1.22-1.29-1.9-2.54-1.9-1.47 0-2.28.88-2.28 2.05 0 2.62 4.29 1.79 4.29 3.92 0 .96-.59 1.58-1.58 1.58-1.25 0-1.95-.52-2.25-1.73l-.67.2c.44 1.45 1.3 2.12 2.82 2.12 1.28 0 2.41-.75 2.41-2.1 0-1.14-.45-1.69-2.68-2.52z"/><path d="m196.63 126.86c-1.78 0-2.35 1.41-2.35 2.96s.57 2.96 2.35 2.96 2.35-1.42 2.35-2.96-.57-2.96-2.35-2.96zm0 5.4c-1.17 0-1.69-.89-1.69-2.44s.52-2.44 1.69-2.44 1.69.89 1.69 2.44-.52 2.44-1.69 2.44z"/><path d="m200.42 126.16v.81h-.94v.53h.94v5.18h.66v-5.18h1.16v-.53h-1.16v-.89c0-.66.26-.91.78-.91.24 0 .44.04.65.11v-.55c-.24-.04-.47-.09-.71-.09-.98 0-1.38.53-1.38 1.51z"/><path d="m204.04 125.11h-.66v1.86h-.86v.53h.86v4.29c0 .69.31 1 1.24 1 .22 0 .45-.07.67-.1v-.55c-.22.07-.46.13-.67.13-.4 0-.58-.2-.58-.59v-4.18h1.26v-.53h-1.26z"/><path d="m210.73 131.56h-.03l-1.27-4.59h-.64l-1.31 4.59h-.02l-1.25-4.59h-.67l1.59 5.71h.68l1.27-4.59h.03l1.28 4.59h.65l1.65-5.71h-.68z"/><path d="m217.34 128.65c0-1.26-.61-1.79-1.91-1.79-.92 0-1.62.37-2.12 1.3l.44.26c.42-.66.98-1.03 1.65-1.03.98 0 1.31.38 1.31 1.14v.4c-2.38.52-3.66.8-3.66 2.36 0 .94.69 1.49 1.57 1.49s1.4-.27 2.07-.8l.09.69h.65c-.07-.38-.1-.76-.1-1.04v-2.98zm-.65 2.66c-.57.58-1.33.95-1.94.95s-1.02-.35-1.02-.98c0-.72.35-1.26 2.96-1.83z"/><path d="m219.79 128.06h-.02v-1.09h-.66v5.71h.66v-3.23c0-1.1.95-1.96 1.66-1.96h.3v-.63h-.3c-.72 0-1.33.5-1.65 1.2z"/><path d="m224.8 132.26c-1.3 0-1.84-1.12-1.84-2.42h3.97c0-1.76-.74-2.98-2.28-2.98-1.44 0-2.35 1.2-2.35 2.96 0 2.01.94 2.96 2.44 2.96 1.09 0 1.65-.38 2.26-1.4l-.53-.29c-.57.9-.94 1.16-1.67 1.16zm-.16-4.87c.99.01 1.51.76 1.64 1.93h-3.31c.02-.75.51-1.94 1.68-1.93z"/><path d="m111.15 25.23 2.71-1.23-2.67.79 1.04-1.04-1.93.45v-.89l-.65.59v-1.73l-.24 1.52-1.32-1.17v1.31l-1.02-1.6-.14.87-1.45-2.03v1.89l-1.6-1.45v.87l-1.59-1.74.14 1.16-2.32-1.16.14.87-1.16-.73-.14.58-2.18-.73.29.73-2.9-1.3 2.32 1.74-1.74-.58.58.73-2.47-.58.73 1.31-1.16-.29.29.87-2.46-.15 1.45.73h-1.27l.67.59-1.15.08 1 .36-1.85.31.81.29s0 0-.01.01l-.61.22.41-.03c-.2.2-.4.41-.6.62l-4.55-13.21v7.27l-5.82-11.8.15 5.98-6.59-9.37.77 5.98-5.36-10.18 1.69 8.4-8.28-8.89 2.15 7.6-5.82-5.98.92 6.47-4.6-3.23 1.99 3.07-5.67-2.26 2.76 3.72-9.96-1.94 5.82 3.54-7.66-1.6 4.44 3.56-2.91-.65 2.2 1.41-2.42.15 1.82.61-1.74.15-.09.56-1.36-3.19-.28 1.9-1.72-2.3-.65 1.14-1.61-2.73-.2 1.01-4.3-4.63.43 2.96-3.22-2.81-.08 1.46-3.77-2.39.15 1.96-2.42-1.96.63 2.09-5.32-3.65 2.7 3.37-5.05-1.45 2.39 1.89-6.26-.93 3.71 1.96-3.5-.34.68 1.06-4.09-.37 2.83 1.91-2.06.18.41.61-2.78-.15 1.84 1.12-4.37.97 2.5.98-3.08.58 2.42.7-1.48.59 1.25.86-2.73 1.21 2.39-.19-3.49 2.14 2.76-.04-4.76 3.88 3.79-1.14-2.93 2.97 2.73-1-3.2 4.37 2.7-1.85-2.26 3.8 2.14-1.24-2.6 4.76 1.87-.89-1.42 3.32 1.71-1.6-1.09 3.22 1.6-.79-1.18 3.19 1.24-.38-1.51 2.57 1.22-.8-.58 2.59 1.22-1.02-.82 2.26 1.29-1.16-1.13 3.32 1.21-1.19-.6 3.58 1.08-.97-.51 2.66 1-1.78-.36 3.2.97-.92-.23.66 1.5-.41-1.99 1.89 2.12-.37-2.13 1.71 2.78-.88-2.09 1.65 4-.03-2.63 1.86 4.64.17-2.84 9.34 3.92-10.31-3.32-.24 2.64-1.74-3.31-.33 2.54-1.44-2.6-.64 2.43-1.29-1.92-1.45 1.18-.09-.39-.81 1.3.4-.74-2.46 1.13.72-.11-.76-.44-1.4.94.41-.94-2.69 1.31 1.25-.72-4.48 1.9 1.62-1.21-4.31 1.35 1.53-1.05-4.21 1.84.58-1.35-2.25 1.2.59-.45-2.09 1.57 2.05-.93-5.01 1.66 2.26.38-4.38.64 1.79 1.56-4.31.19 1.77 1.64-3.14.66 1.36 1.01-2.44.64 1.79 1.92-2.98-.05 1.02 2.74-1.76-.54 1.88 2.71-1.32-1.31 2.57 6.01-2.61-4 3.45 3.24-.06 1.46-.13-5.14 2.48 4.79-1.5c-.05.11-.09.22-.14.32l-2.59 2.09 1.93-.45s-.02.04-.03.07l-1.9 2.56h.96s-1.76 2.11-1.76 2.11l.37.66-2.03 3.04 1.45-.72-.86 2.46 1.09-.91-1.67 4.25 1.59-.72-1.01 3.77 1.11-.83c0 .29 0 .57.02.87l-.12 3.45.29-.76c.18 1.98.5 4.03.97 6.17 2.59 11.61 13.58 33.65 7.16 33.65 0 0 4.58-.17 5.92 4.01 0 0-.01.08 0 .2l-27.46.81 31.2 1.35c.36.03.74.05 1.17.05 4.69 0 9.23-.87 5.35-2.51h.02s-.04 0-.04 0c-.49-.21-1.11-.42-1.88-.65-10.96-11.78-11.61-25.51-6.89-33.91l.29.41.8-2.14s0 0 0-.01l.19 1.43.65-2.33.31.63 1.48-2.61s.01-.01.02-.02l.48 1.07 1.93-2.72c1.86-1 3.94-1.56 6.18-1.56l1.3.11c.06 0 .12.02.18.03l-.15.62h1.6l-.32.8 2.84.26c.07.04.14.09.2.14l-1.45.24 3.98 1.85c3.74 3.65 7.32 9.71 9.94 17.96 2.33 7.31 5.06 17.5 9.92 21.36l-17.58 1.3 29.94 1.75c1.14.16 2.53.25 4.21.25 4.83 0 5.18-1.74-2.28-3.77-4.85-1.32-10.36-22.65-4.17-38.51l.29.15.09-1.11c.04-.08.07-.16.11-.25l.29 1.21.21-2.32s0-.01 0-.02h.35l-.21-.27c.05-.09.1-.18.14-.27l.85.19-.46-.93c.04-.07.07-.14.11-.21 0 0 2.82 1.6 4.48 1.75s3.02-1.21 3.02-1.21 2.72.15 3.02-1.81.15-3.32.15-3.32 2.72-2.87 2.72-5.74.75-5.59.75-5.59l-1.06-.15.15-1.51s5.19-4.14 5.79-6.86c0 0-4.59-1.3-7.91-.09zm-22.09 62.65c-3.2-2.63-3.69-10.48-1.27-8.07 2.38 2.38 5.14 7.97 6.92 11.44-2.14-1.15-4.44-2.38-5.65-3.37zm17.29-45.55c-.18.21-.37.35-.56.44.17-1.07-.35-1.85-.35-1.85-.3.42-.9 1.03-1.4 1.52-.8-.76-.93-2.27-.91-2.64 0 0 1.85.18 2.83.57.73.3 1.02 1.23.4 1.96z"/></g></svg>